<?xml version="1.0" encoding="utf-8"?>
<!-- Generator: Adobe Illustrator 25.2.1, SVG Export Plug-In . SVG Version: 6.00 Build 0)  -->
<svg version="1.1" id="图层_1" xmlns="http://www.w3.org/2000/svg" xmlns:xlink="http://www.w3.org/1999/xlink" x="0px" y="0px"
	 viewBox="0 0 841.9 242.1" style="enable-background:new 0 0 841.9 242.1;" xml:space="preserve">
<style type="text/css">
	.st0{fill:#FFFFFF;}
</style>
<g>
	<g>
		<rect x="54.2" y="64.6" class="st0" width="17.4" height="115"/>
	</g>
	<g>
		<path class="st0" d="M120.5,179.6h-17.4V90.5c0.6-13,10.7-23.9,23.9-25.9c11.2-1.7,26.9,3.4,34.2,23.3l0.2,0.5
			c8.2,27.7,12,39.2,21.3,64.9c3.4,7.8,9.7,9.5,14.1,8.6c5.7-1.2,9.1-6,9-13.1c0.5-20.7,0-83.6,0-84.2l17.4-0.1
			c0,2.6,0.4,63.7,0,84.5c0,15-9.2,27.1-22.9,29.9c-11.7,2.4-26.7-2.6-33.6-19l-0.2-0.4c-9.4-26.1-13.3-37.8-21.6-65.8
			c-3.2-8.5-8.7-12.9-15.2-11.9c-4.2,0.6-8.9,3.8-9.2,9.4L120.5,179.6L120.5,179.6z"/>
	</g>
	<g>
		<rect x="547.4" y="64.5" class="st0" width="17.4" height="115.1"/>
	</g>
	<path class="st0" d="M467.9,124.6c-0.3-8.2,6.4-15,12.1-19.3C504.3,86.8,520.1,75,520.1,75l-10.4-13.9c0,0-15.8,11.9-40.2,30.4
		c-10.6,8-15.6,16.3-17.7,23.4V64.5h-17.4v115.1h17.4v-46.3c3,10.3,11,20,23.4,28c25.3,15.3,34.8,21.6,34.9,21.7l9.6-14.4
		c-0.4-0.3-9.8-6.5-35.4-22C474.2,139.9,468.1,131.9,467.9,124.6z"/>
	<g>
		<path class="st0" d="M377.3,179.3c-4.2,0-9.1-0.5-14.6-1.6c-27.6-5.6-52.9-14.3-84.7-26.5c-27.2-10.4-30-26.9-29.9-33.5
			c0.1-11.5,8.1-21.9,20.4-26.4l0,0c15.2-5.5,39.5-14.1,72.5-25.5c11.7-4.1,22.3-3.9,31.2,0.6c9.8,4.8,17,14.3,21.6,28.1l1.3,3.8
			c4.4,13.2,5.3,16,11.6,39.3c4.8,17.5-0.1,27.4-4.9,32.7C397.8,174.8,390.4,179.3,377.3,179.3z M274.6,107.7c-5.4,2-9,6-9,10.2
			c-0.1,6.2,7,12.6,18.8,17.2c30.9,11.9,55.4,20.3,81.9,25.6c11,2.2,19.7,1.4,23-2.2c3.6-3.8,2.1-11.8,0.9-16.2
			c-6.2-22.9-7.1-25.6-11.3-38.4l-1.3-3.8c-2.1-6.4-6-14.6-12.8-18c-4.7-2.3-10.7-2.2-17.9,0.3C314,93.7,289.6,102.2,274.6,107.7
			L274.6,107.7z"/>
	</g>
	<g>
		<path class="st0" d="M692.6,181.8c-8.9,0-21.3-3.5-29.4-20.4l-0.1-0.3c-1.6-3.7-4.8-11.3-7.8-20.9c-4.4-13.8-6.5-21.1-8.5-28.1
			c-1.4-4.7-2.7-9.3-4.7-15.7c-3.6-11.8-10-17.8-17.5-16.6c-5.7,0.9-11.7,6.5-11.5,13.8c0.5,16.8,0.2,82.4,0.2,85.2l-17.4-0.1
			c0-0.7,0.3-68.1-0.2-84.6c-0.4-15.2,11.1-28.9,26.1-31.4c12.9-2.1,29.4,4.3,36.8,28.6c2,6.5,3.4,11.2,4.7,15.9
			c2,6.9,4.1,14.1,8.4,27.7c2.8,8.7,5.6,15.6,7.1,19c4.5,9.2,9.4,10.4,13.7,10.4c3.9,0,8.4-0.8,12.8-10.4c1.7-3.8,4.3-10.3,6.8-18.9
			c3.3-11.1,4.3-14.5,5.1-17c1.1-3.6,1.7-5.5,7.8-26.6c6.9-23.9,23.8-30.5,36.1-28.9c14.8,1.9,25.9,15,26.2,31.1
			c0.6,24.7,0,85.2,0,85.8l-17.4-0.2c0-0.6,0.5-60.9,0-85.3c-0.2-8.8-5.9-13.6-11.1-14.3c-7.4-1-14,5.4-17.2,16.5
			c-6.1,21.2-6.7,23.1-7.8,26.8c-0.8,2.5-1.8,5.9-5,16.9c-2.8,9.5-5.7,16.7-7.6,21.1C715,174.9,705.4,181.8,692.6,181.8z"/>
	</g>
</g>
</svg>
