<svg xmlns="http://www.w3.org/2000/svg" xmlns:xlink="http://www.w3.org/1999/xlink" id="Capa_1" x="0px" y="0px" viewBox="0 0 600 600" xml:space="preserve"> <g> <path fill="#E73B3A" d="M473.2,507.6c-15.7,0-32.6-1.3-52.2-5.2c-97.9-19.6-188-50.9-301.6-94C22.7,370.5,13.6,311.7,13.6,288.2 c0-40.5,28.7-78.3,73.1-94l0,0c53.5-19.6,141-49.6,258.5-91.4c41.8-14.4,79.6-14.4,111,2.6c35.3,17,60.1,50.9,77,100.5l3.9,13.1 c15.7,47,18.3,57.5,41.8,139.7c17,62.7,0,97.9-17,116.2C546.3,491.9,520.2,507.6,473.2,507.6z M107.6,253 C88,259.5,76.3,273.9,75,289.6c0,22.2,24.8,44.4,66.6,61.4c109.7,41.8,197.2,71.8,291.2,91.4c39.2,7.8,70.5,5.2,82.3-7.8 c13.1-13.1,7.8-41.8,2.6-57.5c-22.2-81-24.8-91.4-40.5-137.1l-3.9-13.1c-7.8-22.2-20.9-52.2-45.7-64c-17-7.8-37.9-7.8-64,1.3 C247.3,203.4,161.1,233.4,107.6,253L107.6,253z"></path> </g> </svg>